<svg xmlns="http://www.w3.org/2000/svg" viewBox="0 0 400 300" fill="none"><title>Review of digital therapeutics for self-management</title><desc>Research papers and a mobile health application illustrate a systematic review of digital therapeutics in disease self-management.</desc><rect width="400" height="300" rx="8" fill="#f7f9fb"/><rect x="33" y="73" width="125" height="169" rx="6" fill="#edf2f6" stroke="#c6d2dd" stroke-width="2"/><rect x="47" y="59" width="125" height="169" rx="6" fill="white" stroke="#c6d2dd" stroke-width="2"/><path d="M67 86h80m-80 18h62m-62 33h80m-80 17h74m-74 17h42" stroke="#b8c7d3" stroke-width="4" stroke-linecap="round"/><circle cx="157" cy="202" r="31" fill="#fff" stroke="#688298" stroke-width="3"/><path d="m179 225 22 23M145 202l9 9 16-19" stroke="#688298" stroke-width="4" stroke-linecap="round" stroke-linejoin="round"/><rect x="232" y="34" width="128" height="232" rx="20" fill="white" stroke="#7890a3" stroke-width="2.5"/><path d="M277 49h39" stroke="#c0cdd7" stroke-width="4" stroke-linecap="round"/><rect x="247" y="70" width="98" height="75" rx="7" fill="#e7eef3"/><path d="M296 86v42m-21-21h42" stroke="#688298" stroke-width="8" stroke-linecap="round"/><g stroke="#b5c5d1" stroke-width="4" stroke-linecap="round"><path d="M272 170h55m-55 24h43m-43 24h51"/></g><g stroke="#7890a3" stroke-width="2" stroke-linecap="round" stroke-linejoin="round"><path d="m249 169 5 5 8-10m-13 29 5 5 8-10m-13 29 5 5 8-10"/></g><path d="M280 248h32" stroke="#c0cdd7" stroke-width="4" stroke-linecap="round"/></svg>
